G04 #@! TF.GenerationSoftware,KiCad,Pcbnew,5.1.2-f72e74a~84~ubuntu18.10.1*
G04 #@! TF.CreationDate,2019-07-18T21:48:07+02:00*
G04 #@! TF.ProjectId,esp12-dht22,65737031-322d-4646-9874-32322e6b6963,rev?*
G04 #@! TF.SameCoordinates,PX4129270PY6f2f610*
G04 #@! TF.FileFunction,Paste,Top*
G04 #@! TF.FilePolarity,Positive*
%FSLAX46Y46*%
G04 Gerber Fmt 4.6, Leading zero omitted, Abs format (unit mm)*
G04 Created by KiCad (PCBNEW 5.1.2-f72e74a~84~ubuntu18.10.1) date 2019-07-18 21:48:07*
%MOMM*%
%LPD*%
G04 APERTURE LIST*
%ADD10R,2.500000X1.000000*%
%ADD11R,4.000000X2.000000*%
%ADD12C,0.750000*%
%ADD13C,0.100000*%
%ADD14C,1.150000*%
%ADD15C,0.950000*%
%ADD16C,1.600000*%
%ADD17R,1.000000X2.500000*%
%ADD18R,1.800000X1.000000*%
G04 APERTURE END LIST*
D10*
X36322000Y4318000D03*
X36322000Y2818000D03*
X36322000Y1318000D03*
D11*
X40282000Y2818000D03*
D12*
X37932000Y2818000D03*
D13*
G36*
X38307000Y1818000D02*
G01*
X37557000Y2318000D01*
X37557000Y3318000D01*
X38307000Y3818000D01*
X38307000Y1818000D01*
X38307000Y1818000D01*
G37*
G36*
X39701505Y7048796D02*
G01*
X39725773Y7045196D01*
X39749572Y7039235D01*
X39772671Y7030970D01*
X39794850Y7020480D01*
X39815893Y7007868D01*
X39835599Y6993253D01*
X39853777Y6976777D01*
X39870253Y6958599D01*
X39884868Y6938893D01*
X39897480Y6917850D01*
X39907970Y6895671D01*
X39916235Y6872572D01*
X39922196Y6848773D01*
X39925796Y6824505D01*
X39927000Y6800001D01*
X39927000Y5899999D01*
X39925796Y5875495D01*
X39922196Y5851227D01*
X39916235Y5827428D01*
X39907970Y5804329D01*
X39897480Y5782150D01*
X39884868Y5761107D01*
X39870253Y5741401D01*
X39853777Y5723223D01*
X39835599Y5706747D01*
X39815893Y5692132D01*
X39794850Y5679520D01*
X39772671Y5669030D01*
X39749572Y5660765D01*
X39725773Y5654804D01*
X39701505Y5651204D01*
X39677001Y5650000D01*
X39026999Y5650000D01*
X39002495Y5651204D01*
X38978227Y5654804D01*
X38954428Y5660765D01*
X38931329Y5669030D01*
X38909150Y5679520D01*
X38888107Y5692132D01*
X38868401Y5706747D01*
X38850223Y5723223D01*
X38833747Y5741401D01*
X38819132Y5761107D01*
X38806520Y5782150D01*
X38796030Y5804329D01*
X38787765Y5827428D01*
X38781804Y5851227D01*
X38778204Y5875495D01*
X38777000Y5899999D01*
X38777000Y6800001D01*
X38778204Y6824505D01*
X38781804Y6848773D01*
X38787765Y6872572D01*
X38796030Y6895671D01*
X38806520Y6917850D01*
X38819132Y6938893D01*
X38833747Y6958599D01*
X38850223Y6976777D01*
X38868401Y6993253D01*
X38888107Y7007868D01*
X38909150Y7020480D01*
X38931329Y7030970D01*
X38954428Y7039235D01*
X38978227Y7045196D01*
X39002495Y7048796D01*
X39026999Y7050000D01*
X39677001Y7050000D01*
X39701505Y7048796D01*
X39701505Y7048796D01*
G37*
D14*
X39352000Y6350000D03*
D13*
G36*
X41751505Y7048796D02*
G01*
X41775773Y7045196D01*
X41799572Y7039235D01*
X41822671Y7030970D01*
X41844850Y7020480D01*
X41865893Y7007868D01*
X41885599Y6993253D01*
X41903777Y6976777D01*
X41920253Y6958599D01*
X41934868Y6938893D01*
X41947480Y6917850D01*
X41957970Y6895671D01*
X41966235Y6872572D01*
X41972196Y6848773D01*
X41975796Y6824505D01*
X41977000Y6800001D01*
X41977000Y5899999D01*
X41975796Y5875495D01*
X41972196Y5851227D01*
X41966235Y5827428D01*
X41957970Y5804329D01*
X41947480Y5782150D01*
X41934868Y5761107D01*
X41920253Y5741401D01*
X41903777Y5723223D01*
X41885599Y5706747D01*
X41865893Y5692132D01*
X41844850Y5679520D01*
X41822671Y5669030D01*
X41799572Y5660765D01*
X41775773Y5654804D01*
X41751505Y5651204D01*
X41727001Y5650000D01*
X41076999Y5650000D01*
X41052495Y5651204D01*
X41028227Y5654804D01*
X41004428Y5660765D01*
X40981329Y5669030D01*
X40959150Y5679520D01*
X40938107Y5692132D01*
X40918401Y5706747D01*
X40900223Y5723223D01*
X40883747Y5741401D01*
X40869132Y5761107D01*
X40856520Y5782150D01*
X40846030Y5804329D01*
X40837765Y5827428D01*
X40831804Y5851227D01*
X40828204Y5875495D01*
X40827000Y5899999D01*
X40827000Y6800001D01*
X40828204Y6824505D01*
X40831804Y6848773D01*
X40837765Y6872572D01*
X40846030Y6895671D01*
X40856520Y6917850D01*
X40869132Y6938893D01*
X40883747Y6958599D01*
X40900223Y6976777D01*
X40918401Y6993253D01*
X40938107Y7007868D01*
X40959150Y7020480D01*
X40981329Y7030970D01*
X41004428Y7039235D01*
X41028227Y7045196D01*
X41052495Y7048796D01*
X41076999Y7050000D01*
X41727001Y7050000D01*
X41751505Y7048796D01*
X41751505Y7048796D01*
G37*
D14*
X41402000Y6350000D03*
D13*
G36*
X34042779Y1793856D02*
G01*
X34065834Y1790437D01*
X34088443Y1784773D01*
X34110387Y1776921D01*
X34131457Y1766956D01*
X34151448Y1754974D01*
X34170168Y1741090D01*
X34187438Y1725438D01*
X34203090Y1708168D01*
X34216974Y1689448D01*
X34228956Y1669457D01*
X34238921Y1648387D01*
X34246773Y1626443D01*
X34252437Y1603834D01*
X34255856Y1580779D01*
X34257000Y1557500D01*
X34257000Y982500D01*
X34255856Y959221D01*
X34252437Y936166D01*
X34246773Y913557D01*
X34238921Y891613D01*
X34228956Y870543D01*
X34216974Y850552D01*
X34203090Y831832D01*
X34187438Y814562D01*
X34170168Y798910D01*
X34151448Y785026D01*
X34131457Y773044D01*
X34110387Y763079D01*
X34088443Y755227D01*
X34065834Y749563D01*
X34042779Y746144D01*
X34019500Y745000D01*
X33544500Y745000D01*
X33521221Y746144D01*
X33498166Y749563D01*
X33475557Y755227D01*
X33453613Y763079D01*
X33432543Y773044D01*
X33412552Y785026D01*
X33393832Y798910D01*
X33376562Y814562D01*
X33360910Y831832D01*
X33347026Y850552D01*
X33335044Y870543D01*
X33325079Y891613D01*
X33317227Y913557D01*
X33311563Y936166D01*
X33308144Y959221D01*
X33307000Y982500D01*
X33307000Y1557500D01*
X33308144Y1580779D01*
X33311563Y1603834D01*
X33317227Y1626443D01*
X33325079Y1648387D01*
X33335044Y1669457D01*
X33347026Y1689448D01*
X33360910Y1708168D01*
X33376562Y1725438D01*
X33393832Y1741090D01*
X33412552Y1754974D01*
X33432543Y1766956D01*
X33453613Y1776921D01*
X33475557Y1784773D01*
X33498166Y1790437D01*
X33521221Y1793856D01*
X33544500Y1795000D01*
X34019500Y1795000D01*
X34042779Y1793856D01*
X34042779Y1793856D01*
G37*
D15*
X33782000Y1270000D03*
D13*
G36*
X34042779Y3543856D02*
G01*
X34065834Y3540437D01*
X34088443Y3534773D01*
X34110387Y3526921D01*
X34131457Y3516956D01*
X34151448Y3504974D01*
X34170168Y3491090D01*
X34187438Y3475438D01*
X34203090Y3458168D01*
X34216974Y3439448D01*
X34228956Y3419457D01*
X34238921Y3398387D01*
X34246773Y3376443D01*
X34252437Y3353834D01*
X34255856Y3330779D01*
X34257000Y3307500D01*
X34257000Y2732500D01*
X34255856Y2709221D01*
X34252437Y2686166D01*
X34246773Y2663557D01*
X34238921Y2641613D01*
X34228956Y2620543D01*
X34216974Y2600552D01*
X34203090Y2581832D01*
X34187438Y2564562D01*
X34170168Y2548910D01*
X34151448Y2535026D01*
X34131457Y2523044D01*
X34110387Y2513079D01*
X34088443Y2505227D01*
X34065834Y2499563D01*
X34042779Y2496144D01*
X34019500Y2495000D01*
X33544500Y2495000D01*
X33521221Y2496144D01*
X33498166Y2499563D01*
X33475557Y2505227D01*
X33453613Y2513079D01*
X33432543Y2523044D01*
X33412552Y2535026D01*
X33393832Y2548910D01*
X33376562Y2564562D01*
X33360910Y2581832D01*
X33347026Y2600552D01*
X33335044Y2620543D01*
X33325079Y2641613D01*
X33317227Y2663557D01*
X33311563Y2686166D01*
X33308144Y2709221D01*
X33307000Y2732500D01*
X33307000Y3307500D01*
X33308144Y3330779D01*
X33311563Y3353834D01*
X33317227Y3376443D01*
X33325079Y3398387D01*
X33335044Y3419457D01*
X33347026Y3439448D01*
X33360910Y3458168D01*
X33376562Y3475438D01*
X33393832Y3491090D01*
X33412552Y3504974D01*
X33432543Y3516956D01*
X33453613Y3526921D01*
X33475557Y3534773D01*
X33498166Y3540437D01*
X33521221Y3543856D01*
X33544500Y3545000D01*
X34019500Y3545000D01*
X34042779Y3543856D01*
X34042779Y3543856D01*
G37*
D15*
X33782000Y3020000D03*
D13*
G36*
X28484504Y16800796D02*
G01*
X28508773Y16797196D01*
X28532571Y16791235D01*
X28555671Y16782970D01*
X28577849Y16772480D01*
X28598893Y16759867D01*
X28618598Y16745253D01*
X28636777Y16728777D01*
X28653253Y16710598D01*
X28667867Y16690893D01*
X28680480Y16669849D01*
X28690970Y16647671D01*
X28699235Y16624571D01*
X28705196Y16600773D01*
X28708796Y16576504D01*
X28710000Y16552000D01*
X28710000Y15452000D01*
X28708796Y15427496D01*
X28705196Y15403227D01*
X28699235Y15379429D01*
X28690970Y15356329D01*
X28680480Y15334151D01*
X28667867Y15313107D01*
X28653253Y15293402D01*
X28636777Y15275223D01*
X28618598Y15258747D01*
X28598893Y15244133D01*
X28577849Y15231520D01*
X28555671Y15221030D01*
X28532571Y15212765D01*
X28508773Y15206804D01*
X28484504Y15203204D01*
X28460000Y15202000D01*
X26360000Y15202000D01*
X26335496Y15203204D01*
X26311227Y15206804D01*
X26287429Y15212765D01*
X26264329Y15221030D01*
X26242151Y15231520D01*
X26221107Y15244133D01*
X26201402Y15258747D01*
X26183223Y15275223D01*
X26166747Y15293402D01*
X26152133Y15313107D01*
X26139520Y15334151D01*
X26129030Y15356329D01*
X26120765Y15379429D01*
X26114804Y15403227D01*
X26111204Y15427496D01*
X26110000Y15452000D01*
X26110000Y16552000D01*
X26111204Y16576504D01*
X26114804Y16600773D01*
X26120765Y16624571D01*
X26129030Y16647671D01*
X26139520Y16669849D01*
X26152133Y16690893D01*
X26166747Y16710598D01*
X26183223Y16728777D01*
X26201402Y16745253D01*
X26221107Y16759867D01*
X26242151Y16772480D01*
X26264329Y16782970D01*
X26287429Y16791235D01*
X26311227Y16797196D01*
X26335496Y16800796D01*
X26360000Y16802000D01*
X28460000Y16802000D01*
X28484504Y16800796D01*
X28484504Y16800796D01*
G37*
D16*
X27410000Y16002000D03*
D13*
G36*
X32084504Y16800796D02*
G01*
X32108773Y16797196D01*
X32132571Y16791235D01*
X32155671Y16782970D01*
X32177849Y16772480D01*
X32198893Y16759867D01*
X32218598Y16745253D01*
X32236777Y16728777D01*
X32253253Y16710598D01*
X32267867Y16690893D01*
X32280480Y16669849D01*
X32290970Y16647671D01*
X32299235Y16624571D01*
X32305196Y16600773D01*
X32308796Y16576504D01*
X32310000Y16552000D01*
X32310000Y15452000D01*
X32308796Y15427496D01*
X32305196Y15403227D01*
X32299235Y15379429D01*
X32290970Y15356329D01*
X32280480Y15334151D01*
X32267867Y15313107D01*
X32253253Y15293402D01*
X32236777Y15275223D01*
X32218598Y15258747D01*
X32198893Y15244133D01*
X32177849Y15231520D01*
X32155671Y15221030D01*
X32132571Y15212765D01*
X32108773Y15206804D01*
X32084504Y15203204D01*
X32060000Y15202000D01*
X29960000Y15202000D01*
X29935496Y15203204D01*
X29911227Y15206804D01*
X29887429Y15212765D01*
X29864329Y15221030D01*
X29842151Y15231520D01*
X29821107Y15244133D01*
X29801402Y15258747D01*
X29783223Y15275223D01*
X29766747Y15293402D01*
X29752133Y15313107D01*
X29739520Y15334151D01*
X29729030Y15356329D01*
X29720765Y15379429D01*
X29714804Y15403227D01*
X29711204Y15427496D01*
X29710000Y15452000D01*
X29710000Y16552000D01*
X29711204Y16576504D01*
X29714804Y16600773D01*
X29720765Y16624571D01*
X29729030Y16647671D01*
X29739520Y16669849D01*
X29752133Y16690893D01*
X29766747Y16710598D01*
X29783223Y16728777D01*
X29801402Y16745253D01*
X29821107Y16759867D01*
X29842151Y16772480D01*
X29864329Y16782970D01*
X29887429Y16791235D01*
X29911227Y16797196D01*
X29935496Y16800796D01*
X29960000Y16802000D01*
X32060000Y16802000D01*
X32084504Y16800796D01*
X32084504Y16800796D01*
G37*
D16*
X31010000Y16002000D03*
D17*
X8819000Y1671000D03*
X10819000Y1671000D03*
X12819000Y1671000D03*
X14819000Y1671000D03*
X16819000Y1671000D03*
X18819000Y1671000D03*
X20819000Y1671000D03*
X22819000Y1671000D03*
D18*
X24319000Y4271000D03*
X24319000Y6271000D03*
X24319000Y8271000D03*
X24319000Y10271000D03*
X24319000Y12271000D03*
X24319000Y14271000D03*
D17*
X22819000Y16871000D03*
X20819000Y16871000D03*
X18819000Y16871000D03*
X16819000Y16871000D03*
X14819000Y16871000D03*
X12819000Y16871000D03*
X10819000Y16871000D03*
X8819000Y16871000D03*
D13*
G36*
X38412504Y9688796D02*
G01*
X38436773Y9685196D01*
X38460571Y9679235D01*
X38483671Y9670970D01*
X38505849Y9660480D01*
X38526893Y9647867D01*
X38546598Y9633253D01*
X38564777Y9616777D01*
X38581253Y9598598D01*
X38595867Y9578893D01*
X38608480Y9557849D01*
X38618970Y9535671D01*
X38627235Y9512571D01*
X38633196Y9488773D01*
X38636796Y9464504D01*
X38638000Y9440000D01*
X38638000Y8340000D01*
X38636796Y8315496D01*
X38633196Y8291227D01*
X38627235Y8267429D01*
X38618970Y8244329D01*
X38608480Y8222151D01*
X38595867Y8201107D01*
X38581253Y8181402D01*
X38564777Y8163223D01*
X38546598Y8146747D01*
X38526893Y8132133D01*
X38505849Y8119520D01*
X38483671Y8109030D01*
X38460571Y8100765D01*
X38436773Y8094804D01*
X38412504Y8091204D01*
X38388000Y8090000D01*
X36288000Y8090000D01*
X36263496Y8091204D01*
X36239227Y8094804D01*
X36215429Y8100765D01*
X36192329Y8109030D01*
X36170151Y8119520D01*
X36149107Y8132133D01*
X36129402Y8146747D01*
X36111223Y8163223D01*
X36094747Y8181402D01*
X36080133Y8201107D01*
X36067520Y8222151D01*
X36057030Y8244329D01*
X36048765Y8267429D01*
X36042804Y8291227D01*
X36039204Y8315496D01*
X36038000Y8340000D01*
X36038000Y9440000D01*
X36039204Y9464504D01*
X36042804Y9488773D01*
X36048765Y9512571D01*
X36057030Y9535671D01*
X36067520Y9557849D01*
X36080133Y9578893D01*
X36094747Y9598598D01*
X36111223Y9616777D01*
X36129402Y9633253D01*
X36149107Y9647867D01*
X36170151Y9660480D01*
X36192329Y9670970D01*
X36215429Y9679235D01*
X36239227Y9685196D01*
X36263496Y9688796D01*
X36288000Y9690000D01*
X38388000Y9690000D01*
X38412504Y9688796D01*
X38412504Y9688796D01*
G37*
D16*
X37338000Y8890000D03*
D13*
G36*
X34812504Y9688796D02*
G01*
X34836773Y9685196D01*
X34860571Y9679235D01*
X34883671Y9670970D01*
X34905849Y9660480D01*
X34926893Y9647867D01*
X34946598Y9633253D01*
X34964777Y9616777D01*
X34981253Y9598598D01*
X34995867Y9578893D01*
X35008480Y9557849D01*
X35018970Y9535671D01*
X35027235Y9512571D01*
X35033196Y9488773D01*
X35036796Y9464504D01*
X35038000Y9440000D01*
X35038000Y8340000D01*
X35036796Y8315496D01*
X35033196Y8291227D01*
X35027235Y8267429D01*
X35018970Y8244329D01*
X35008480Y8222151D01*
X34995867Y8201107D01*
X34981253Y8181402D01*
X34964777Y8163223D01*
X34946598Y8146747D01*
X34926893Y8132133D01*
X34905849Y8119520D01*
X34883671Y8109030D01*
X34860571Y8100765D01*
X34836773Y8094804D01*
X34812504Y8091204D01*
X34788000Y8090000D01*
X32688000Y8090000D01*
X32663496Y8091204D01*
X32639227Y8094804D01*
X32615429Y8100765D01*
X32592329Y8109030D01*
X32570151Y8119520D01*
X32549107Y8132133D01*
X32529402Y8146747D01*
X32511223Y8163223D01*
X32494747Y8181402D01*
X32480133Y8201107D01*
X32467520Y8222151D01*
X32457030Y8244329D01*
X32448765Y8267429D01*
X32442804Y8291227D01*
X32439204Y8315496D01*
X32438000Y8340000D01*
X32438000Y9440000D01*
X32439204Y9464504D01*
X32442804Y9488773D01*
X32448765Y9512571D01*
X32457030Y9535671D01*
X32467520Y9557849D01*
X32480133Y9578893D01*
X32494747Y9598598D01*
X32511223Y9616777D01*
X32529402Y9633253D01*
X32549107Y9647867D01*
X32570151Y9660480D01*
X32592329Y9670970D01*
X32615429Y9679235D01*
X32639227Y9685196D01*
X32663496Y9688796D01*
X32688000Y9690000D01*
X34788000Y9690000D01*
X34812504Y9688796D01*
X34812504Y9688796D01*
G37*
D16*
X33738000Y8890000D03*
D13*
G36*
X41876505Y11005796D02*
G01*
X41900773Y11002196D01*
X41924572Y10996235D01*
X41947671Y10987970D01*
X41969850Y10977480D01*
X41990893Y10964868D01*
X42010599Y10950253D01*
X42028777Y10933777D01*
X42045253Y10915599D01*
X42059868Y10895893D01*
X42072480Y10874850D01*
X42082970Y10852671D01*
X42091235Y10829572D01*
X42097196Y10805773D01*
X42100796Y10781505D01*
X42102000Y10757001D01*
X42102000Y10106999D01*
X42100796Y10082495D01*
X42097196Y10058227D01*
X42091235Y10034428D01*
X42082970Y10011329D01*
X42072480Y9989150D01*
X42059868Y9968107D01*
X42045253Y9948401D01*
X42028777Y9930223D01*
X42010599Y9913747D01*
X41990893Y9899132D01*
X41969850Y9886520D01*
X41947671Y9876030D01*
X41924572Y9867765D01*
X41900773Y9861804D01*
X41876505Y9858204D01*
X41852001Y9857000D01*
X40951999Y9857000D01*
X40927495Y9858204D01*
X40903227Y9861804D01*
X40879428Y9867765D01*
X40856329Y9876030D01*
X40834150Y9886520D01*
X40813107Y9899132D01*
X40793401Y9913747D01*
X40775223Y9930223D01*
X40758747Y9948401D01*
X40744132Y9968107D01*
X40731520Y9989150D01*
X40721030Y10011329D01*
X40712765Y10034428D01*
X40706804Y10058227D01*
X40703204Y10082495D01*
X40702000Y10106999D01*
X40702000Y10757001D01*
X40703204Y10781505D01*
X40706804Y10805773D01*
X40712765Y10829572D01*
X40721030Y10852671D01*
X40731520Y10874850D01*
X40744132Y10895893D01*
X40758747Y10915599D01*
X40775223Y10933777D01*
X40793401Y10950253D01*
X40813107Y10964868D01*
X40834150Y10977480D01*
X40856329Y10987970D01*
X40879428Y10996235D01*
X40903227Y11002196D01*
X40927495Y11005796D01*
X40951999Y11007000D01*
X41852001Y11007000D01*
X41876505Y11005796D01*
X41876505Y11005796D01*
G37*
D14*
X41402000Y10432000D03*
D13*
G36*
X41876505Y8955796D02*
G01*
X41900773Y8952196D01*
X41924572Y8946235D01*
X41947671Y8937970D01*
X41969850Y8927480D01*
X41990893Y8914868D01*
X42010599Y8900253D01*
X42028777Y8883777D01*
X42045253Y8865599D01*
X42059868Y8845893D01*
X42072480Y8824850D01*
X42082970Y8802671D01*
X42091235Y8779572D01*
X42097196Y8755773D01*
X42100796Y8731505D01*
X42102000Y8707001D01*
X42102000Y8056999D01*
X42100796Y8032495D01*
X42097196Y8008227D01*
X42091235Y7984428D01*
X42082970Y7961329D01*
X42072480Y7939150D01*
X42059868Y7918107D01*
X42045253Y7898401D01*
X42028777Y7880223D01*
X42010599Y7863747D01*
X41990893Y7849132D01*
X41969850Y7836520D01*
X41947671Y7826030D01*
X41924572Y7817765D01*
X41900773Y7811804D01*
X41876505Y7808204D01*
X41852001Y7807000D01*
X40951999Y7807000D01*
X40927495Y7808204D01*
X40903227Y7811804D01*
X40879428Y7817765D01*
X40856329Y7826030D01*
X40834150Y7836520D01*
X40813107Y7849132D01*
X40793401Y7863747D01*
X40775223Y7880223D01*
X40758747Y7898401D01*
X40744132Y7918107D01*
X40731520Y7939150D01*
X40721030Y7961329D01*
X40712765Y7984428D01*
X40706804Y8008227D01*
X40703204Y8032495D01*
X40702000Y8056999D01*
X40702000Y8707001D01*
X40703204Y8731505D01*
X40706804Y8755773D01*
X40712765Y8779572D01*
X40721030Y8802671D01*
X40731520Y8824850D01*
X40744132Y8845893D01*
X40758747Y8865599D01*
X40775223Y8883777D01*
X40793401Y8900253D01*
X40813107Y8914868D01*
X40834150Y8927480D01*
X40856329Y8937970D01*
X40879428Y8946235D01*
X40903227Y8952196D01*
X40927495Y8955796D01*
X40951999Y8957000D01*
X41852001Y8957000D01*
X41876505Y8955796D01*
X41876505Y8955796D01*
G37*
D14*
X41402000Y8382000D03*
D13*
G36*
X35780505Y15559796D02*
G01*
X35804773Y15556196D01*
X35828572Y15550235D01*
X35851671Y15541970D01*
X35873850Y15531480D01*
X35894893Y15518868D01*
X35914599Y15504253D01*
X35932777Y15487777D01*
X35949253Y15469599D01*
X35963868Y15449893D01*
X35976480Y15428850D01*
X35986970Y15406671D01*
X35995235Y15383572D01*
X36001196Y15359773D01*
X36004796Y15335505D01*
X36006000Y15311001D01*
X36006000Y14660999D01*
X36004796Y14636495D01*
X36001196Y14612227D01*
X35995235Y14588428D01*
X35986970Y14565329D01*
X35976480Y14543150D01*
X35963868Y14522107D01*
X35949253Y14502401D01*
X35932777Y14484223D01*
X35914599Y14467747D01*
X35894893Y14453132D01*
X35873850Y14440520D01*
X35851671Y14430030D01*
X35828572Y14421765D01*
X35804773Y14415804D01*
X35780505Y14412204D01*
X35756001Y14411000D01*
X34855999Y14411000D01*
X34831495Y14412204D01*
X34807227Y14415804D01*
X34783428Y14421765D01*
X34760329Y14430030D01*
X34738150Y14440520D01*
X34717107Y14453132D01*
X34697401Y14467747D01*
X34679223Y14484223D01*
X34662747Y14502401D01*
X34648132Y14522107D01*
X34635520Y14543150D01*
X34625030Y14565329D01*
X34616765Y14588428D01*
X34610804Y14612227D01*
X34607204Y14636495D01*
X34606000Y14660999D01*
X34606000Y15311001D01*
X34607204Y15335505D01*
X34610804Y15359773D01*
X34616765Y15383572D01*
X34625030Y15406671D01*
X34635520Y15428850D01*
X34648132Y15449893D01*
X34662747Y15469599D01*
X34679223Y15487777D01*
X34697401Y15504253D01*
X34717107Y15518868D01*
X34738150Y15531480D01*
X34760329Y15541970D01*
X34783428Y15550235D01*
X34807227Y15556196D01*
X34831495Y15559796D01*
X34855999Y15561000D01*
X35756001Y15561000D01*
X35780505Y15559796D01*
X35780505Y15559796D01*
G37*
D14*
X35306000Y14986000D03*
D13*
G36*
X35780505Y13509796D02*
G01*
X35804773Y13506196D01*
X35828572Y13500235D01*
X35851671Y13491970D01*
X35873850Y13481480D01*
X35894893Y13468868D01*
X35914599Y13454253D01*
X35932777Y13437777D01*
X35949253Y13419599D01*
X35963868Y13399893D01*
X35976480Y13378850D01*
X35986970Y13356671D01*
X35995235Y13333572D01*
X36001196Y13309773D01*
X36004796Y13285505D01*
X36006000Y13261001D01*
X36006000Y12610999D01*
X36004796Y12586495D01*
X36001196Y12562227D01*
X35995235Y12538428D01*
X35986970Y12515329D01*
X35976480Y12493150D01*
X35963868Y12472107D01*
X35949253Y12452401D01*
X35932777Y12434223D01*
X35914599Y12417747D01*
X35894893Y12403132D01*
X35873850Y12390520D01*
X35851671Y12380030D01*
X35828572Y12371765D01*
X35804773Y12365804D01*
X35780505Y12362204D01*
X35756001Y12361000D01*
X34855999Y12361000D01*
X34831495Y12362204D01*
X34807227Y12365804D01*
X34783428Y12371765D01*
X34760329Y12380030D01*
X34738150Y12390520D01*
X34717107Y12403132D01*
X34697401Y12417747D01*
X34679223Y12434223D01*
X34662747Y12452401D01*
X34648132Y12472107D01*
X34635520Y12493150D01*
X34625030Y12515329D01*
X34616765Y12538428D01*
X34610804Y12562227D01*
X34607204Y12586495D01*
X34606000Y12610999D01*
X34606000Y13261001D01*
X34607204Y13285505D01*
X34610804Y13309773D01*
X34616765Y13333572D01*
X34625030Y13356671D01*
X34635520Y13378850D01*
X34648132Y13399893D01*
X34662747Y13419599D01*
X34679223Y13437777D01*
X34697401Y13454253D01*
X34717107Y13468868D01*
X34738150Y13481480D01*
X34760329Y13491970D01*
X34783428Y13500235D01*
X34807227Y13506196D01*
X34831495Y13509796D01*
X34855999Y13511000D01*
X35756001Y13511000D01*
X35780505Y13509796D01*
X35780505Y13509796D01*
G37*
D14*
X35306000Y12936000D03*
M02*
