G04 #@! TF.GenerationSoftware,KiCad,Pcbnew,5.1.2-f72e74a~84~ubuntu18.10.1*
G04 #@! TF.CreationDate,2019-07-18T21:48:07+02:00*
G04 #@! TF.ProjectId,esp12-dht22,65737031-322d-4646-9874-32322e6b6963,rev?*
G04 #@! TF.SameCoordinates,PX4129270PY6f2f610*
G04 #@! TF.FileFunction,Soldermask,Top*
G04 #@! TF.FilePolarity,Negative*
%FSLAX46Y46*%
G04 Gerber Fmt 4.6, Leading zero omitted, Abs format (unit mm)*
G04 Created by KiCad (PCBNEW 5.1.2-f72e74a~84~ubuntu18.10.1) date 2019-07-18 21:48:07*
%MOMM*%
%LPD*%
G04 APERTURE LIST*
%ADD10C,0.100000*%
G04 APERTURE END LIST*
D10*
G36*
X23370000Y370000D02*
G01*
X22268000Y370000D01*
X22268000Y2972000D01*
X23370000Y2972000D01*
X23370000Y370000D01*
X23370000Y370000D01*
G37*
G36*
X21370000Y370000D02*
G01*
X20268000Y370000D01*
X20268000Y2972000D01*
X21370000Y2972000D01*
X21370000Y370000D01*
X21370000Y370000D01*
G37*
G36*
X19370000Y370000D02*
G01*
X18268000Y370000D01*
X18268000Y2972000D01*
X19370000Y2972000D01*
X19370000Y370000D01*
X19370000Y370000D01*
G37*
G36*
X17370000Y370000D02*
G01*
X16268000Y370000D01*
X16268000Y2972000D01*
X17370000Y2972000D01*
X17370000Y370000D01*
X17370000Y370000D01*
G37*
G36*
X15370000Y370000D02*
G01*
X14268000Y370000D01*
X14268000Y2972000D01*
X15370000Y2972000D01*
X15370000Y370000D01*
X15370000Y370000D01*
G37*
G36*
X11370000Y370000D02*
G01*
X10268000Y370000D01*
X10268000Y2972000D01*
X11370000Y2972000D01*
X11370000Y370000D01*
X11370000Y370000D01*
G37*
G36*
X9370000Y370000D02*
G01*
X8268000Y370000D01*
X8268000Y2972000D01*
X9370000Y2972000D01*
X9370000Y370000D01*
X9370000Y370000D01*
G37*
G36*
X13370000Y370000D02*
G01*
X12268000Y370000D01*
X12268000Y2972000D01*
X13370000Y2972000D01*
X13370000Y370000D01*
X13370000Y370000D01*
G37*
G36*
X34146499Y1841555D02*
G01*
X34183995Y1830180D01*
X34218554Y1811708D01*
X34248847Y1786847D01*
X34273708Y1756554D01*
X34292180Y1721995D01*
X34303555Y1684499D01*
X34308000Y1639362D01*
X34308000Y900638D01*
X34303555Y855501D01*
X34292180Y818005D01*
X34273708Y783446D01*
X34248847Y753153D01*
X34218554Y728292D01*
X34183995Y709820D01*
X34146499Y698445D01*
X34101362Y694000D01*
X33462638Y694000D01*
X33417501Y698445D01*
X33380005Y709820D01*
X33345446Y728292D01*
X33315153Y753153D01*
X33290292Y783446D01*
X33271820Y818005D01*
X33260445Y855501D01*
X33256000Y900638D01*
X33256000Y1639362D01*
X33260445Y1684499D01*
X33271820Y1721995D01*
X33290292Y1756554D01*
X33315153Y1786847D01*
X33345446Y1811708D01*
X33380005Y1830180D01*
X33417501Y1841555D01*
X33462638Y1846000D01*
X34101362Y1846000D01*
X34146499Y1841555D01*
X34146499Y1841555D01*
G37*
G36*
X37623000Y767000D02*
G01*
X35021000Y767000D01*
X35021000Y1869000D01*
X37623000Y1869000D01*
X37623000Y767000D01*
X37623000Y767000D01*
G37*
G36*
X38379066Y3924553D02*
G01*
X38394611Y3905611D01*
X38413553Y3890066D01*
X38435164Y3878515D01*
X38458613Y3871402D01*
X38482999Y3869000D01*
X42333000Y3869000D01*
X42333000Y1767000D01*
X38482999Y1767000D01*
X38458613Y1764598D01*
X38435164Y1757485D01*
X38413553Y1745934D01*
X38394611Y1730389D01*
X38379066Y1711447D01*
X38377968Y1709393D01*
X38323049Y1746006D01*
X38301426Y1757535D01*
X38277970Y1764624D01*
X38253712Y1767000D01*
X38227949Y1767000D01*
X38221485Y1788310D01*
X38209934Y1809921D01*
X38194389Y1828863D01*
X38175338Y1844480D01*
X37817336Y2083148D01*
X37805435Y2089493D01*
X37795053Y2098004D01*
X37573050Y2246006D01*
X37551427Y2257535D01*
X37527971Y2264624D01*
X37503713Y2267000D01*
X35021000Y2267000D01*
X35021000Y3369000D01*
X37503713Y3369000D01*
X37528099Y3371402D01*
X37551548Y3378515D01*
X37573050Y3389994D01*
X37795053Y3537996D01*
X37805437Y3546500D01*
X37817336Y3552852D01*
X38175338Y3791520D01*
X38194296Y3807045D01*
X38209861Y3825971D01*
X38221435Y3847569D01*
X38227961Y3869000D01*
X38253712Y3869000D01*
X38278098Y3871402D01*
X38301547Y3878515D01*
X38323049Y3889994D01*
X38377968Y3926607D01*
X38379066Y3924553D01*
X38379066Y3924553D01*
G37*
G36*
X29503000Y1993000D02*
G01*
X27901000Y1993000D01*
X27901000Y3595000D01*
X29503000Y3595000D01*
X29503000Y1993000D01*
X29503000Y1993000D01*
G37*
G36*
X34146499Y3591555D02*
G01*
X34183995Y3580180D01*
X34218554Y3561708D01*
X34248847Y3536847D01*
X34273708Y3506554D01*
X34292180Y3471995D01*
X34303555Y3434499D01*
X34308000Y3389362D01*
X34308000Y2650638D01*
X34303555Y2605501D01*
X34292180Y2568005D01*
X34273708Y2533446D01*
X34248847Y2503153D01*
X34218554Y2478292D01*
X34183995Y2459820D01*
X34146499Y2448445D01*
X34101362Y2444000D01*
X33462638Y2444000D01*
X33417501Y2448445D01*
X33380005Y2459820D01*
X33345446Y2478292D01*
X33315153Y2503153D01*
X33290292Y2533446D01*
X33271820Y2568005D01*
X33260445Y2605501D01*
X33256000Y2650638D01*
X33256000Y3389362D01*
X33260445Y3434499D01*
X33271820Y3471995D01*
X33290292Y3506554D01*
X33315153Y3536847D01*
X33345446Y3561708D01*
X33380005Y3580180D01*
X33417501Y3591555D01*
X33462638Y3596000D01*
X34101362Y3596000D01*
X34146499Y3591555D01*
X34146499Y3591555D01*
G37*
G36*
X25270000Y3720000D02*
G01*
X23368000Y3720000D01*
X23368000Y4822000D01*
X25270000Y4822000D01*
X25270000Y3720000D01*
X25270000Y3720000D01*
G37*
G36*
X37623000Y3767000D02*
G01*
X35021000Y3767000D01*
X35021000Y4869000D01*
X37623000Y4869000D01*
X37623000Y3767000D01*
X37623000Y3767000D01*
G37*
G36*
X28935642Y6104219D02*
G01*
X29081414Y6043838D01*
X29081416Y6043837D01*
X29212608Y5956178D01*
X29324178Y5844608D01*
X29407463Y5719962D01*
X29411838Y5713414D01*
X29472219Y5567642D01*
X29503000Y5412893D01*
X29503000Y5255107D01*
X29472219Y5100358D01*
X29411838Y4954586D01*
X29411837Y4954584D01*
X29324178Y4823392D01*
X29212608Y4711822D01*
X29081416Y4624163D01*
X29081415Y4624162D01*
X29081414Y4624162D01*
X28935642Y4563781D01*
X28780893Y4533000D01*
X28623107Y4533000D01*
X28468358Y4563781D01*
X28322586Y4624162D01*
X28322585Y4624162D01*
X28322584Y4624163D01*
X28191392Y4711822D01*
X28079822Y4823392D01*
X27992163Y4954584D01*
X27992162Y4954586D01*
X27931781Y5100358D01*
X27901000Y5255107D01*
X27901000Y5412893D01*
X27931781Y5567642D01*
X27992162Y5713414D01*
X27996537Y5719962D01*
X28079822Y5844608D01*
X28191392Y5956178D01*
X28322584Y6043837D01*
X28322586Y6043838D01*
X28468358Y6104219D01*
X28623107Y6135000D01*
X28780893Y6135000D01*
X28935642Y6104219D01*
X28935642Y6104219D01*
G37*
G36*
X39815674Y7096535D02*
G01*
X39853367Y7085101D01*
X39888103Y7066534D01*
X39918548Y7041548D01*
X39943534Y7011103D01*
X39962101Y6976367D01*
X39973535Y6938674D01*
X39978000Y6893339D01*
X39978000Y5806661D01*
X39973535Y5761326D01*
X39962101Y5723633D01*
X39943534Y5688897D01*
X39918548Y5658452D01*
X39888103Y5633466D01*
X39853367Y5614899D01*
X39815674Y5603465D01*
X39770339Y5599000D01*
X38933661Y5599000D01*
X38888326Y5603465D01*
X38850633Y5614899D01*
X38815897Y5633466D01*
X38785452Y5658452D01*
X38760466Y5688897D01*
X38741899Y5723633D01*
X38730465Y5761326D01*
X38726000Y5806661D01*
X38726000Y6893339D01*
X38730465Y6938674D01*
X38741899Y6976367D01*
X38760466Y7011103D01*
X38785452Y7041548D01*
X38815897Y7066534D01*
X38850633Y7085101D01*
X38888326Y7096535D01*
X38933661Y7101000D01*
X39770339Y7101000D01*
X39815674Y7096535D01*
X39815674Y7096535D01*
G37*
G36*
X41865674Y7096535D02*
G01*
X41903367Y7085101D01*
X41938103Y7066534D01*
X41968548Y7041548D01*
X41993534Y7011103D01*
X42012101Y6976367D01*
X42023535Y6938674D01*
X42028000Y6893339D01*
X42028000Y5806661D01*
X42023535Y5761326D01*
X42012101Y5723633D01*
X41993534Y5688897D01*
X41968548Y5658452D01*
X41938103Y5633466D01*
X41903367Y5614899D01*
X41865674Y5603465D01*
X41820339Y5599000D01*
X40983661Y5599000D01*
X40938326Y5603465D01*
X40900633Y5614899D01*
X40865897Y5633466D01*
X40835452Y5658452D01*
X40810466Y5688897D01*
X40791899Y5723633D01*
X40780465Y5761326D01*
X40776000Y5806661D01*
X40776000Y6893339D01*
X40780465Y6938674D01*
X40791899Y6976367D01*
X40810466Y7011103D01*
X40835452Y7041548D01*
X40865897Y7066534D01*
X40900633Y7085101D01*
X40938326Y7096535D01*
X40983661Y7101000D01*
X41820339Y7101000D01*
X41865674Y7096535D01*
X41865674Y7096535D01*
G37*
G36*
X25270000Y5720000D02*
G01*
X23368000Y5720000D01*
X23368000Y6822000D01*
X25270000Y6822000D01*
X25270000Y5720000D01*
X25270000Y5720000D01*
G37*
G36*
X28935642Y8644219D02*
G01*
X29081414Y8583838D01*
X29081416Y8583837D01*
X29212608Y8496178D01*
X29324178Y8384608D01*
X29377412Y8304937D01*
X29411838Y8253414D01*
X29472219Y8107642D01*
X29503000Y7952893D01*
X29503000Y7795107D01*
X29472219Y7640358D01*
X29411838Y7494586D01*
X29411837Y7494584D01*
X29324178Y7363392D01*
X29212608Y7251822D01*
X29081416Y7164163D01*
X29081415Y7164162D01*
X29081414Y7164162D01*
X28935642Y7103781D01*
X28780893Y7073000D01*
X28623107Y7073000D01*
X28468358Y7103781D01*
X28322586Y7164162D01*
X28322585Y7164162D01*
X28322584Y7164163D01*
X28191392Y7251822D01*
X28079822Y7363392D01*
X27992163Y7494584D01*
X27992162Y7494586D01*
X27931781Y7640358D01*
X27901000Y7795107D01*
X27901000Y7952893D01*
X27931781Y8107642D01*
X27992162Y8253414D01*
X28026588Y8304937D01*
X28079822Y8384608D01*
X28191392Y8496178D01*
X28322584Y8583837D01*
X28322586Y8583838D01*
X28468358Y8644219D01*
X28623107Y8675000D01*
X28780893Y8675000D01*
X28935642Y8644219D01*
X28935642Y8644219D01*
G37*
G36*
X25270000Y7720000D02*
G01*
X23368000Y7720000D01*
X23368000Y8822000D01*
X25270000Y8822000D01*
X25270000Y7720000D01*
X25270000Y7720000D01*
G37*
G36*
X41990674Y9003535D02*
G01*
X42028367Y8992101D01*
X42063103Y8973534D01*
X42093548Y8948548D01*
X42118534Y8918103D01*
X42137101Y8883367D01*
X42148535Y8845674D01*
X42153000Y8800339D01*
X42153000Y7963661D01*
X42148535Y7918326D01*
X42137101Y7880633D01*
X42118534Y7845897D01*
X42093548Y7815452D01*
X42063103Y7790466D01*
X42028367Y7771899D01*
X41990674Y7760465D01*
X41945339Y7756000D01*
X40858661Y7756000D01*
X40813326Y7760465D01*
X40775633Y7771899D01*
X40740897Y7790466D01*
X40710452Y7815452D01*
X40685466Y7845897D01*
X40666899Y7880633D01*
X40655465Y7918326D01*
X40651000Y7963661D01*
X40651000Y8800339D01*
X40655465Y8845674D01*
X40666899Y8883367D01*
X40685466Y8918103D01*
X40710452Y8948548D01*
X40740897Y8973534D01*
X40775633Y8992101D01*
X40813326Y9003535D01*
X40858661Y9008000D01*
X41945339Y9008000D01*
X41990674Y9003535D01*
X41990674Y9003535D01*
G37*
G36*
X38543997Y9736949D02*
G01*
X38577652Y9726739D01*
X38608665Y9710162D01*
X38635851Y9687851D01*
X38658162Y9660665D01*
X38674739Y9629652D01*
X38684949Y9595997D01*
X38689000Y9554862D01*
X38689000Y8225138D01*
X38684949Y8184003D01*
X38674739Y8150348D01*
X38658162Y8119335D01*
X38635851Y8092149D01*
X38608665Y8069838D01*
X38577652Y8053261D01*
X38543997Y8043051D01*
X38502862Y8039000D01*
X36173138Y8039000D01*
X36132003Y8043051D01*
X36098348Y8053261D01*
X36067335Y8069838D01*
X36040149Y8092149D01*
X36017838Y8119335D01*
X36001261Y8150348D01*
X35991051Y8184003D01*
X35987000Y8225138D01*
X35987000Y9554862D01*
X35991051Y9595997D01*
X36001261Y9629652D01*
X36017838Y9660665D01*
X36040149Y9687851D01*
X36067335Y9710162D01*
X36098348Y9726739D01*
X36132003Y9736949D01*
X36173138Y9741000D01*
X38502862Y9741000D01*
X38543997Y9736949D01*
X38543997Y9736949D01*
G37*
G36*
X34943997Y9736949D02*
G01*
X34977652Y9726739D01*
X35008665Y9710162D01*
X35035851Y9687851D01*
X35058162Y9660665D01*
X35074739Y9629652D01*
X35084949Y9595997D01*
X35089000Y9554862D01*
X35089000Y8225138D01*
X35084949Y8184003D01*
X35074739Y8150348D01*
X35058162Y8119335D01*
X35035851Y8092149D01*
X35008665Y8069838D01*
X34977652Y8053261D01*
X34943997Y8043051D01*
X34902862Y8039000D01*
X32573138Y8039000D01*
X32532003Y8043051D01*
X32498348Y8053261D01*
X32467335Y8069838D01*
X32440149Y8092149D01*
X32417838Y8119335D01*
X32401261Y8150348D01*
X32391051Y8184003D01*
X32387000Y8225138D01*
X32387000Y9554862D01*
X32391051Y9595997D01*
X32401261Y9629652D01*
X32417838Y9660665D01*
X32440149Y9687851D01*
X32467335Y9710162D01*
X32498348Y9726739D01*
X32532003Y9736949D01*
X32573138Y9741000D01*
X34902862Y9741000D01*
X34943997Y9736949D01*
X34943997Y9736949D01*
G37*
G36*
X28935642Y11184219D02*
G01*
X29081414Y11123838D01*
X29081416Y11123837D01*
X29212608Y11036178D01*
X29324178Y10924608D01*
X29381429Y10838925D01*
X29411838Y10793414D01*
X29472219Y10647642D01*
X29503000Y10492893D01*
X29503000Y10335107D01*
X29472219Y10180358D01*
X29429892Y10078173D01*
X29411837Y10034584D01*
X29324178Y9903392D01*
X29212608Y9791822D01*
X29081416Y9704163D01*
X29081415Y9704162D01*
X29081414Y9704162D01*
X28935642Y9643781D01*
X28780893Y9613000D01*
X28623107Y9613000D01*
X28468358Y9643781D01*
X28322586Y9704162D01*
X28322585Y9704162D01*
X28322584Y9704163D01*
X28191392Y9791822D01*
X28079822Y9903392D01*
X27992163Y10034584D01*
X27974108Y10078173D01*
X27931781Y10180358D01*
X27901000Y10335107D01*
X27901000Y10492893D01*
X27931781Y10647642D01*
X27992162Y10793414D01*
X28022571Y10838925D01*
X28079822Y10924608D01*
X28191392Y11036178D01*
X28322584Y11123837D01*
X28322586Y11123838D01*
X28468358Y11184219D01*
X28623107Y11215000D01*
X28780893Y11215000D01*
X28935642Y11184219D01*
X28935642Y11184219D01*
G37*
G36*
X25270000Y9720000D02*
G01*
X23368000Y9720000D01*
X23368000Y10822000D01*
X25270000Y10822000D01*
X25270000Y9720000D01*
X25270000Y9720000D01*
G37*
G36*
X41990674Y11053535D02*
G01*
X42028367Y11042101D01*
X42063103Y11023534D01*
X42093548Y10998548D01*
X42118534Y10968103D01*
X42137101Y10933367D01*
X42148535Y10895674D01*
X42153000Y10850339D01*
X42153000Y10013661D01*
X42148535Y9968326D01*
X42137101Y9930633D01*
X42118534Y9895897D01*
X42093548Y9865452D01*
X42063103Y9840466D01*
X42028367Y9821899D01*
X41990674Y9810465D01*
X41945339Y9806000D01*
X40858661Y9806000D01*
X40813326Y9810465D01*
X40775633Y9821899D01*
X40740897Y9840466D01*
X40710452Y9865452D01*
X40685466Y9895897D01*
X40666899Y9930633D01*
X40655465Y9968326D01*
X40651000Y10013661D01*
X40651000Y10850339D01*
X40655465Y10895674D01*
X40666899Y10933367D01*
X40685466Y10968103D01*
X40710452Y10998548D01*
X40740897Y11023534D01*
X40775633Y11042101D01*
X40813326Y11053535D01*
X40858661Y11058000D01*
X41945339Y11058000D01*
X41990674Y11053535D01*
X41990674Y11053535D01*
G37*
G36*
X25270000Y11720000D02*
G01*
X23368000Y11720000D01*
X23368000Y12822000D01*
X25270000Y12822000D01*
X25270000Y11720000D01*
X25270000Y11720000D01*
G37*
G36*
X35894674Y13557535D02*
G01*
X35932367Y13546101D01*
X35967103Y13527534D01*
X35997548Y13502548D01*
X36022534Y13472103D01*
X36041101Y13437367D01*
X36052535Y13399674D01*
X36057000Y13354339D01*
X36057000Y12517661D01*
X36052535Y12472326D01*
X36041101Y12434633D01*
X36022534Y12399897D01*
X35997548Y12369452D01*
X35967103Y12344466D01*
X35932367Y12325899D01*
X35894674Y12314465D01*
X35849339Y12310000D01*
X34762661Y12310000D01*
X34717326Y12314465D01*
X34679633Y12325899D01*
X34644897Y12344466D01*
X34614452Y12369452D01*
X34589466Y12399897D01*
X34570899Y12434633D01*
X34559465Y12472326D01*
X34555000Y12517661D01*
X34555000Y13354339D01*
X34559465Y13399674D01*
X34570899Y13437367D01*
X34589466Y13472103D01*
X34614452Y13502548D01*
X34644897Y13527534D01*
X34679633Y13546101D01*
X34717326Y13557535D01*
X34762661Y13562000D01*
X35849339Y13562000D01*
X35894674Y13557535D01*
X35894674Y13557535D01*
G37*
G36*
X40136242Y14616596D02*
G01*
X40173337Y14605343D01*
X40207515Y14587075D01*
X40237481Y14562481D01*
X40262075Y14532515D01*
X40280343Y14498337D01*
X40291596Y14461242D01*
X40296000Y14416526D01*
X40296000Y13523474D01*
X40291596Y13478758D01*
X40280343Y13441663D01*
X40262075Y13407485D01*
X40237481Y13377519D01*
X40207515Y13352925D01*
X40173337Y13334657D01*
X40136242Y13323404D01*
X40091526Y13319000D01*
X38648474Y13319000D01*
X38603758Y13323404D01*
X38566663Y13334657D01*
X38532485Y13352925D01*
X38502519Y13377519D01*
X38477925Y13407485D01*
X38459657Y13441663D01*
X38448404Y13478758D01*
X38444000Y13523474D01*
X38444000Y14416526D01*
X38448404Y14461242D01*
X38459657Y14498337D01*
X38477925Y14532515D01*
X38502519Y14562481D01*
X38532485Y14587075D01*
X38566663Y14605343D01*
X38603758Y14616596D01*
X38648474Y14621000D01*
X40091526Y14621000D01*
X40136242Y14616596D01*
X40136242Y14616596D01*
G37*
G36*
X25270000Y13720000D02*
G01*
X23368000Y13720000D01*
X23368000Y14822000D01*
X25270000Y14822000D01*
X25270000Y13720000D01*
X25270000Y13720000D01*
G37*
G36*
X35894674Y15607535D02*
G01*
X35932367Y15596101D01*
X35967103Y15577534D01*
X35997548Y15552548D01*
X36022534Y15522103D01*
X36041101Y15487367D01*
X36052535Y15449674D01*
X36057000Y15404339D01*
X36057000Y14567661D01*
X36052535Y14522326D01*
X36041101Y14484633D01*
X36022534Y14449897D01*
X35997548Y14419452D01*
X35967103Y14394466D01*
X35932367Y14375899D01*
X35894674Y14364465D01*
X35849339Y14360000D01*
X34762661Y14360000D01*
X34717326Y14364465D01*
X34679633Y14375899D01*
X34644897Y14394466D01*
X34614452Y14419452D01*
X34589466Y14449897D01*
X34570899Y14484633D01*
X34559465Y14522326D01*
X34555000Y14567661D01*
X34555000Y15404339D01*
X34559465Y15449674D01*
X34570899Y15487367D01*
X34589466Y15522103D01*
X34614452Y15552548D01*
X34644897Y15577534D01*
X34679633Y15596101D01*
X34717326Y15607535D01*
X34762661Y15612000D01*
X35849339Y15612000D01*
X35894674Y15607535D01*
X35894674Y15607535D01*
G37*
G36*
X32215997Y16848949D02*
G01*
X32249652Y16838739D01*
X32280665Y16822162D01*
X32307851Y16799851D01*
X32330162Y16772665D01*
X32346739Y16741652D01*
X32356949Y16707997D01*
X32361000Y16666862D01*
X32361000Y15337138D01*
X32356949Y15296003D01*
X32346739Y15262348D01*
X32330162Y15231335D01*
X32307851Y15204149D01*
X32280665Y15181838D01*
X32249652Y15165261D01*
X32215997Y15155051D01*
X32174862Y15151000D01*
X29845138Y15151000D01*
X29804003Y15155051D01*
X29770348Y15165261D01*
X29739335Y15181838D01*
X29712149Y15204149D01*
X29689838Y15231335D01*
X29673261Y15262348D01*
X29663051Y15296003D01*
X29659000Y15337138D01*
X29659000Y16666862D01*
X29663051Y16707997D01*
X29673261Y16741652D01*
X29689838Y16772665D01*
X29712149Y16799851D01*
X29739335Y16822162D01*
X29770348Y16838739D01*
X29804003Y16848949D01*
X29845138Y16853000D01*
X32174862Y16853000D01*
X32215997Y16848949D01*
X32215997Y16848949D01*
G37*
G36*
X28615997Y16848949D02*
G01*
X28649652Y16838739D01*
X28680665Y16822162D01*
X28707851Y16799851D01*
X28730162Y16772665D01*
X28746739Y16741652D01*
X28756949Y16707997D01*
X28761000Y16666862D01*
X28761000Y15337138D01*
X28756949Y15296003D01*
X28746739Y15262348D01*
X28730162Y15231335D01*
X28707851Y15204149D01*
X28680665Y15181838D01*
X28649652Y15165261D01*
X28615997Y15155051D01*
X28574862Y15151000D01*
X26245138Y15151000D01*
X26204003Y15155051D01*
X26170348Y15165261D01*
X26139335Y15181838D01*
X26112149Y15204149D01*
X26089838Y15231335D01*
X26073261Y15262348D01*
X26063051Y15296003D01*
X26059000Y15337138D01*
X26059000Y16666862D01*
X26063051Y16707997D01*
X26073261Y16741652D01*
X26089838Y16772665D01*
X26112149Y16799851D01*
X26139335Y16822162D01*
X26170348Y16838739D01*
X26204003Y16848949D01*
X26245138Y16853000D01*
X28574862Y16853000D01*
X28615997Y16848949D01*
X28615997Y16848949D01*
G37*
G36*
X39708855Y16617860D02*
G01*
X39772618Y16611580D01*
X39853439Y16587063D01*
X39895336Y16574354D01*
X40008425Y16513906D01*
X40107554Y16432554D01*
X40188906Y16333425D01*
X40249354Y16220336D01*
X40249355Y16220332D01*
X40286580Y16097618D01*
X40299149Y15970000D01*
X40286580Y15842382D01*
X40259040Y15751596D01*
X40249354Y15719664D01*
X40188906Y15606575D01*
X40107554Y15507446D01*
X40008425Y15426094D01*
X39895336Y15365646D01*
X39863404Y15355960D01*
X39772618Y15328420D01*
X39708855Y15322140D01*
X39676974Y15319000D01*
X39063026Y15319000D01*
X39031145Y15322140D01*
X38967382Y15328420D01*
X38876596Y15355960D01*
X38844664Y15365646D01*
X38731575Y15426094D01*
X38632446Y15507446D01*
X38551094Y15606575D01*
X38490646Y15719664D01*
X38480960Y15751596D01*
X38453420Y15842382D01*
X38440851Y15970000D01*
X38453420Y16097618D01*
X38490645Y16220332D01*
X38490646Y16220336D01*
X38551094Y16333425D01*
X38632446Y16432554D01*
X38731575Y16513906D01*
X38844664Y16574354D01*
X38886561Y16587063D01*
X38967382Y16611580D01*
X39031145Y16617860D01*
X39063026Y16621000D01*
X39676974Y16621000D01*
X39708855Y16617860D01*
X39708855Y16617860D01*
G37*
G36*
X13370000Y15570000D02*
G01*
X12268000Y15570000D01*
X12268000Y18172000D01*
X13370000Y18172000D01*
X13370000Y15570000D01*
X13370000Y15570000D01*
G37*
G36*
X23370000Y15570000D02*
G01*
X22268000Y15570000D01*
X22268000Y18172000D01*
X23370000Y18172000D01*
X23370000Y15570000D01*
X23370000Y15570000D01*
G37*
G36*
X21370000Y15570000D02*
G01*
X20268000Y15570000D01*
X20268000Y18172000D01*
X21370000Y18172000D01*
X21370000Y15570000D01*
X21370000Y15570000D01*
G37*
G36*
X19370000Y15570000D02*
G01*
X18268000Y15570000D01*
X18268000Y18172000D01*
X19370000Y18172000D01*
X19370000Y15570000D01*
X19370000Y15570000D01*
G37*
G36*
X17370000Y15570000D02*
G01*
X16268000Y15570000D01*
X16268000Y18172000D01*
X17370000Y18172000D01*
X17370000Y15570000D01*
X17370000Y15570000D01*
G37*
G36*
X9370000Y15570000D02*
G01*
X8268000Y15570000D01*
X8268000Y18172000D01*
X9370000Y18172000D01*
X9370000Y15570000D01*
X9370000Y15570000D01*
G37*
G36*
X11370000Y15570000D02*
G01*
X10268000Y15570000D01*
X10268000Y18172000D01*
X11370000Y18172000D01*
X11370000Y15570000D01*
X11370000Y15570000D01*
G37*
G36*
X15370000Y15570000D02*
G01*
X14268000Y15570000D01*
X14268000Y18172000D01*
X15370000Y18172000D01*
X15370000Y15570000D01*
X15370000Y15570000D01*
G37*
M02*
